<mxfile host="app.diagrams.net" agent="Mozilla/5.0 (Windows NT 10.0; Win64; x64) AppleWebKit/537.36 (KHTML, like Gecko) Chrome/131.0.0.0 Safari/537.36" version="25.0.3">
  <diagram name="第 1 页" id="5W8OKril3LvtHUeCAIhv">
    <mxGraphModel dx="921" dy="699" grid="1" gridSize="10" guides="1" tooltips="1" connect="1" arrows="1" fold="1" page="1" pageScale="1" pageWidth="827" pageHeight="1169" math="0" shadow="0">
      <root>
        <mxCell id="0" />
        <mxCell id="1" parent="0" />
        <mxCell id="Y36VzEWhWaTYfT2yAYS7-3" value="&lt;font style=&quot;font-size: 16px;&quot;&gt;ELF映像（image）的结构&lt;/font&gt;" style="rounded=0;whiteSpace=wrap;html=1;" vertex="1" parent="1">
          <mxGeometry x="150" y="180" width="200" height="50" as="geometry" />
        </mxCell>
        <mxCell id="Y36VzEWhWaTYfT2yAYS7-4" value="&lt;span style=&quot;color: rgb(10, 10, 10); font-family: Tahoma, Geneva, sans-serif; font-size: 16px; letter-spacing: 1.2px; text-align: left; background-color: rgb(255, 255, 255);&quot;&gt;执行映像时，这些域和节在内存中的位置&lt;/span&gt;" style="rounded=0;whiteSpace=wrap;html=1;" vertex="1" parent="1">
          <mxGeometry x="390" y="240" width="180" height="50" as="geometry" />
        </mxCell>
        <mxCell id="Y36VzEWhWaTYfT2yAYS7-5" value="&lt;span style=&quot;color: rgb(10, 10, 10); font-family: Tahoma, Geneva, sans-serif; font-size: 16px; letter-spacing: 1.2px; text-align: left; background-color: rgb(255, 255, 255);&quot;&gt;加载映像时，这些域和节在内存中的位置&lt;/span&gt;" style="rounded=0;whiteSpace=wrap;html=1;" vertex="1" parent="1">
          <mxGeometry x="390" y="180" width="180" height="50" as="geometry" />
        </mxCell>
        <mxCell id="Y36VzEWhWaTYfT2yAYS7-6" value="&lt;span style=&quot;color: rgb(10, 10, 10); font-family: Tahoma, Geneva, sans-serif; font-size: 16px; letter-spacing: 1.2px; text-align: left; background-color: rgb(255, 255, 255);&quot;&gt;组成映像的域和输出节的数量&lt;/span&gt;" style="rounded=0;whiteSpace=wrap;html=1;" vertex="1" parent="1">
          <mxGeometry x="390" y="120" width="180" height="50" as="geometry" />
        </mxCell>
        <mxCell id="Y36VzEWhWaTYfT2yAYS7-8" value="&lt;font style=&quot;font-size: 18px;&quot;&gt;ELF目标文件视图&lt;/font&gt;" style="rounded=0;whiteSpace=wrap;html=1;" vertex="1" parent="1">
          <mxGeometry x="130" y="440" width="170" height="50" as="geometry" />
        </mxCell>
        <mxCell id="Y36VzEWhWaTYfT2yAYS7-9" value="&lt;span style=&quot;color: rgb(10, 10, 10); font-family: Tahoma, Geneva, sans-serif; font-size: 16px; letter-spacing: 1.2px; text-align: start; background-color: rgb(255, 255, 255);&quot;&gt;输入节&lt;/span&gt;" style="whiteSpace=wrap;html=1;" vertex="1" parent="1">
          <mxGeometry x="155" y="510" width="120" height="40" as="geometry" />
        </mxCell>
        <mxCell id="Y36VzEWhWaTYfT2yAYS7-10" value="&lt;font style=&quot;font-size: 18px;&quot;&gt;ELF链接视图&lt;/font&gt;" style="rounded=0;whiteSpace=wrap;html=1;" vertex="1" parent="1">
          <mxGeometry x="350" y="440" width="170" height="50" as="geometry" />
        </mxCell>
      </root>
    </mxGraphModel>
  </diagram>
</mxfile>
